<svg id="Layer_1" data-name="Layer 1" xmlns="http://www.w3.org/2000/svg" viewBox="0 0 49.88 50.48"><defs><style>.cls-1{fill:none;}.cls-2{fill:#fff;}.cls-3{fill:#ed1c24;}</style></defs><title>PB</title><path class="cls-1" d="M82.92,79.22h-15V87.3a3.78,3.78,0,0,0,.45,2.3,3.35,3.35,0,0,0,2.41.62H82.41c1.18,0,3.2-.06,4.32-1.4a6.64,6.64,0,0,0,1-4,7.76,7.76,0,0,0-.84-4C86.45,80.23,85.33,79.22,82.92,79.22Z" transform="translate(-45.5 -45.64)"/><path class="cls-2" d="M45.5,86.27V51.73c0-1.51,0-3.13,1.39-4.53a6.32,6.32,0,0,1,4.59-1.57H70.8c2.15,0,5.57,0,8.07,2.44,2.79,2.67,3.08,7.25,3.08,10.68s-.35,8.53-3.54,11.15a10.17,10.17,0,0,1-6.21,2h-19v14.4ZM67.73,65.78c1.68,0,3.66,0,5-1.51s1.33-4,1.33-5.57c0-1.8-.17-4.24-1.45-5.57s-3.48-1.39-4.76-1.39H55.48a2.25,2.25,0,0,0-1.8.52,2.49,2.49,0,0,0-.52,1.91V65.78Z" transform="translate(-45.5 -45.64)"/><path class="cls-3" d="M93.52,78.32a6.6,6.6,0,0,0-4.32-2.08V76a5,5,0,0,0,3.7-2c1.74-2.07,1.85-4.26,1.85-6.4,0-2.58-.28-6.17-2.47-8.42s-5-2.36-7.13-2.36H65.86a5.22,5.22,0,0,0-4.15,1.63,6.53,6.53,0,0,0-1.23,4v3.29h7.41V64.9a2.7,2.7,0,0,1,.5-1.74c.45-.5,1.07-.45,1.68-.45H82.19a4.88,4.88,0,0,1,3.65,1c1.23,1.18,1.29,3.14,1.29,4.21,0,2.69-.56,3.65-.84,4-1,1.4-2.58,1.4-4,1.4H67.88V71.88H60.47V90.55a5.94,5.94,0,0,0,1.35,4c1.57,1.8,3.37,1.57,5.33,1.57h18.8c2.41,0,4.94,0,7.18-2.52s2.25-5.67,2.25-8.25C95.38,83.14,95.38,80.34,93.52,78.32ZM86.73,88.81c-1.12,1.35-3.14,1.4-4.32,1.4H70.74a3.35,3.35,0,0,1-2.41-.62,3.78,3.78,0,0,1-.45-2.3V79.22h15c2.41,0,3.53,1,4,1.63a7.76,7.76,0,0,1,.84,4A6.64,6.64,0,0,1,86.73,88.81Z" transform="translate(-45.5 -45.64)"/></svg>